<svg width="210" height="48" viewBox="0 0 210 48" fill="none" xmlns="http://www.w3.org/2000/svg">
<g clip-path="url(#clip0)">
<path d="M97.8032 -0.57666H-0.564209V48.1867H97.8032V-0.57666Z" fill="#232323"/>
<path d="M209.971 -0.57666H97.8032V48.1867H209.971V-0.57666Z" fill="black"/>
<path d="M135.459 13.7419C134.853 14.9138 134.196 16.1802 133.488 17.5412C132.779 18.9022 132.066 20.2868 131.348 21.695C130.629 23.1026 129.915 24.487 129.206 25.8482C128.498 27.2102 127.846 28.4767 127.251 29.6475C126.655 30.8199 126.131 31.8598 125.677 32.767C125.223 33.6742 124.883 34.3639 124.656 34.8363L121.622 23.4104C121.579 23.3199 121.546 23.2249 121.523 23.1272C121.496 23.0252 121.482 22.9203 121.48 22.8148C121.437 22.8627 121.408 22.9216 121.395 22.985C121.379 23.0557 121.35 23.1229 121.31 23.1834C121.273 23.2557 121.245 23.3318 121.225 23.4104C120.469 24.8847 119.732 26.3212 119.014 27.7198C118.711 28.3253 118.394 28.9443 118.064 29.5767C117.733 30.2103 117.407 30.8391 117.086 31.4629C116.764 32.086 116.457 32.6907 116.165 33.2771C115.871 33.8633 115.611 34.3926 115.384 34.8649C114.402 31.3114 113.462 27.7861 112.564 24.2891C111.666 20.7929 110.725 17.2772 109.742 13.7419H111.925C112.171 14.6681 112.436 15.665 112.719 16.7327C113.002 17.801 113.286 18.8737 113.57 19.951C113.853 21.0287 114.127 22.0825 114.392 23.1126C114.657 24.1427 114.898 25.0877 115.116 25.9477C115.333 26.8083 115.512 27.5501 115.653 28.1732C115.795 28.7973 115.885 29.2415 115.923 29.5059L116.037 30.3566C116.055 30.2998 116.112 30.1629 116.207 29.9453C116.263 29.8038 116.33 29.6665 116.406 29.5346C116.424 29.4779 116.504 29.307 116.646 29.0239C116.788 28.7407 116.963 28.3856 117.171 27.9608C117.379 27.5361 117.614 27.0587 117.88 26.5287C118.144 26.0004 118.408 25.4617 118.674 24.9128C119.297 23.628 120.006 22.1915 120.8 20.6033C120.516 19.4315 120.27 18.3634 120.063 17.3991C119.968 16.9843 119.873 16.578 119.779 16.1804C119.685 15.7828 119.6 15.4142 119.524 15.0747C119.448 14.7342 119.382 14.4458 119.326 14.2094C119.283 14.0565 119.254 13.9 119.24 13.7419H121.112C121.717 16.0295 122.274 18.1937 122.784 20.2348C123.012 21.1041 123.239 21.9924 123.465 22.8996C123.692 23.8076 123.905 24.6725 124.103 25.4943C124.301 26.3161 124.485 27.0768 124.656 27.7766C124.826 28.4763 124.958 29.0527 125.053 29.5059C125.088 29.6457 125.112 29.7881 125.124 29.9318C125.133 30.0635 125.147 30.2057 125.166 30.3566L125.506 29.5059C125.62 29.2415 125.827 28.7934 126.131 28.1598C126.432 27.5267 126.796 26.7752 127.222 25.905C127.647 25.0362 128.119 24.0865 128.639 23.0558C129.159 22.0262 129.693 20.9723 130.241 19.8943C130.79 18.8162 131.338 17.7483 131.886 16.6906C132.434 15.6322 132.944 14.6493 133.417 13.7419H135.459Z" fill="white"/>
<path d="M148.104 33.9296C147.839 33.0599 147.527 31.9918 147.168 30.7253C146.809 29.4589 146.441 28.1168 146.062 26.6991H138.294C137.575 28.1166 136.881 29.4587 136.21 30.7253C135.538 31.992 134.966 33.0601 134.494 33.9296H132.566C132.944 33.2486 133.436 32.3459 134.041 31.2215C134.646 30.097 135.303 28.8637 136.011 27.5216C136.72 26.1799 137.462 24.786 138.237 23.3398C139.012 21.8935 139.754 20.4994 140.462 19.1573C141.171 17.8158 141.829 16.5872 142.433 15.4715C143.038 14.3564 143.529 13.4492 143.908 12.7499C144.115 13.449 144.384 14.3562 144.716 15.4715C145.046 16.587 145.401 17.8156 145.779 19.1573C146.157 20.4999 146.559 21.8941 146.984 23.3398C147.409 24.7854 147.811 26.1794 148.189 27.5216C148.567 28.8637 148.922 30.097 149.252 31.2215C149.583 32.3471 149.852 33.2498 150.059 33.9296H148.104ZM143 17.7116C142.509 18.5997 141.928 19.6865 141.257 20.9721C140.585 22.2574 139.891 23.6089 139.173 25.0264H145.637C145.24 23.6089 144.862 22.2574 144.503 20.9721C144.144 19.6867 143.832 18.5999 143.568 17.7116C143.549 17.6362 143.525 17.508 143.497 17.3284C143.468 17.1488 143.434 16.9838 143.397 16.8323C143.34 16.9838 143.269 17.1492 143.184 17.3284C143.1 17.508 143.038 17.6362 143 17.7116" fill="white"/>
<path d="M153.349 33.9296L155.843 13.6853H157.772L155.503 32.0867H166.277L166.05 33.9296H153.349Z" fill="white"/>
<path d="M169.255 33.9296L171.749 13.6853H173.678L171.41 32.0867H182.184L181.957 33.9296H169.255Z" fill="white"/>
<path d="M198.174 14.7344L197.267 16.2942C196.583 16.0094 195.876 15.7816 195.155 15.6132C194.398 15.428 193.623 15.333 192.844 15.33C192.181 15.322 191.521 15.4175 190.888 15.6132C190.346 15.7793 189.837 16.0385 189.385 16.379C188.987 16.6792 188.659 17.061 188.421 17.4988C188.197 17.9123 188.08 18.3752 188.081 18.8455C188.07 19.1475 188.127 19.448 188.247 19.7251C188.367 20.0022 188.548 20.249 188.776 20.4473C189.298 20.8915 189.88 21.2591 190.505 21.5389C191.195 21.8601 191.941 22.1675 192.745 22.461C193.531 22.745 194.282 23.1157 194.985 23.5661C195.662 23.9981 196.249 24.5565 196.715 25.2107C197.204 25.9533 197.447 26.831 197.409 27.7193C197.42 28.6269 197.237 29.5263 196.871 30.3567C196.516 31.1448 195.982 31.839 195.311 32.3839C194.574 32.9714 193.732 33.4139 192.83 33.688C191.769 34.0129 190.665 34.1708 189.556 34.156C188.827 34.1626 188.1 34.0914 187.386 33.9436C186.797 33.8205 186.219 33.6497 185.657 33.4329C185.216 33.2634 184.79 33.0596 184.381 32.8233C184.031 32.6156 183.743 32.436 183.516 32.2844L184.593 30.5831C185.32 31.0697 186.106 31.4606 186.933 31.7462C187.836 32.0804 188.791 32.2531 189.753 32.2564C190.366 32.2479 190.975 32.167 191.568 32.0153C192.225 31.857 192.855 31.604 193.439 31.2641C194.017 30.9314 194.515 30.4768 194.899 29.932C195.3 29.3387 195.504 28.634 195.481 27.9183C195.51 27.2052 195.261 26.5087 194.787 25.9759C194.285 25.4472 193.695 25.0107 193.043 24.6865C192.312 24.3141 191.56 23.9872 190.789 23.7077C190.014 23.428 189.26 23.0916 188.534 22.7014C187.871 22.3521 187.279 21.8807 186.791 21.312C186.312 20.7201 186.065 19.9745 186.096 19.214C186.094 18.4823 186.26 17.7599 186.578 17.1014C186.912 16.4154 187.379 15.8033 187.953 15.3012C188.582 14.7518 189.308 14.3239 190.093 14.0393C190.984 13.7173 191.925 13.5587 192.872 13.5712C193.413 13.5722 193.954 13.615 194.488 13.6994C195.037 13.7842 195.552 13.8881 196.034 14.0112C196.515 14.1342 196.945 14.2618 197.324 14.3938C197.614 14.4904 197.898 14.6041 198.175 14.7343" fill="white"/>
<path d="M20.0377 30.9363C20.0292 30.1587 20.1692 29.3867 20.4502 28.6616C20.7092 27.9942 21.0982 27.3849 21.5945 26.869C22.0947 26.3576 22.695 25.9547 23.3578 25.6855C24.8154 25.1161 26.4338 25.1161 27.8913 25.6855C28.5539 25.9548 29.154 26.3577 29.6541 26.869C30.1504 27.385 30.5396 27.9943 30.799 28.6616C31.3482 30.131 31.3482 31.7492 30.799 33.2185C30.5412 33.8891 30.1519 34.5014 29.6541 35.0193C29.1553 35.5302 28.5547 35.9306 27.8913 36.1946C26.4321 36.7547 24.8171 36.7547 23.3578 36.1946C22.6942 35.9308 22.0934 35.5303 21.5945 35.0193C21.0966 34.5015 20.7075 33.8892 20.4502 33.2185C20.1695 32.4907 20.0296 31.7163 20.0377 30.9363V30.9363ZM21.0452 30.9363C21.0398 31.5763 21.1484 32.2122 21.3658 32.8143C21.5674 33.3739 21.8787 33.8876 22.2814 34.3254C22.6868 34.7582 23.1782 35.1013 23.7241 35.3329C24.9438 35.8212 26.3048 35.8212 27.5245 35.3329C28.0704 35.1013 28.5618 34.7582 28.9672 34.3254C29.3701 33.8877 29.6814 33.374 29.8828 32.8143C30.3103 31.5992 30.3103 30.2746 29.8828 29.0595C29.6818 28.4995 29.3705 27.9857 28.9672 27.5483C28.562 27.1152 28.0705 26.7718 27.5245 26.5403C26.3048 26.0519 24.9438 26.0519 23.7241 26.5403C23.178 26.7718 22.6866 27.1152 22.2814 27.5483C21.8783 27.9858 21.567 28.4997 21.3658 29.0595C21.1484 29.6611 21.0398 30.2966 21.0452 30.9363" fill="white"/>
<path d="M34.889 25.5331H36.4002L40.3381 34.6001L44.2761 25.5331H45.7112V36.34H44.7037V26.8149H44.6733L40.5517 36.34H40.1094L35.9269 26.8149H35.8965V36.34H34.889V25.5331Z" fill="white"/>
<path d="M53.4042 25.5331H54.442L58.9907 36.34H57.8616L56.6857 33.4698H50.9622L49.7412 36.34H48.6873L53.4042 25.5331ZM53.8775 26.6318L51.3589 32.5542H56.3194L53.8775 26.6318Z" fill="white"/>
<path d="M62.0742 25.5331H63.3718L69.9501 34.9967H69.9811V25.5331H70.9885V36.34H69.6909L63.1121 26.8769H63.0817V36.34H62.0742V25.5331Z" fill="white"/>
<path d="M74.7734 30.9363C74.765 30.1588 74.9048 29.3868 75.1852 28.6616C75.4447 27.9944 75.8336 27.3852 76.3296 26.869C76.83 26.3576 77.4305 25.9547 78.0935 25.6855C79.5508 25.1161 81.1691 25.1161 82.6264 25.6855C83.2893 25.9547 83.8895 26.3576 84.3897 26.869C84.8859 27.3851 85.2748 27.9943 85.5341 28.6616C86.084 30.1308 86.084 31.7493 85.5341 33.2185C85.2765 33.8891 84.8874 34.5013 84.3897 35.0193C83.8908 35.5303 83.2901 35.9308 82.6264 36.1946C81.1673 36.7547 79.5526 36.7547 78.0935 36.1946C77.4297 35.9307 76.8287 35.5303 76.3296 35.0193C75.8321 34.5012 75.443 33.889 75.1852 33.2185C74.9051 32.4906 74.7654 31.7162 74.7734 30.9363V30.9363ZM75.7809 30.9363C75.7753 31.5763 75.8837 32.2122 76.1008 32.8143C76.3027 33.3739 76.6142 33.8876 77.017 34.3254C77.4224 34.7581 77.9138 35.1013 78.4597 35.3329C79.6797 35.8212 81.0408 35.8212 82.2608 35.3329C82.8063 35.1007 83.2976 34.7576 83.7035 34.3254C84.1057 33.8874 84.4168 33.3737 84.6185 32.8143C85.0468 31.5993 85.0468 30.2744 84.6185 29.0594C84.4172 28.4998 84.1061 27.986 83.7035 27.5483C83.2978 27.1157 82.8065 26.7724 82.2608 26.5403C81.0408 26.0519 79.6797 26.0519 78.4597 26.5403C77.9137 26.7718 77.4222 27.1152 77.017 27.5483C76.6138 27.9858 76.3023 28.4996 76.1008 29.0594C75.8837 29.6611 75.7753 30.2966 75.7809 30.9363" fill="white"/>
<path d="M29.5348 11.447H30.5727L35.1214 22.2534H33.9922L32.8169 19.3831H27.0928L25.8718 22.2534H24.8182L29.5348 11.447ZM30.0081 12.5451L27.4895 18.4681H32.4506L30.0081 12.5451Z" fill="white"/>
<path d="M38.2048 11.4464H41.0441C41.1862 11.4464 41.3798 11.4517 41.6238 11.4616C41.8901 11.4746 42.1554 11.5051 42.4177 11.5529C42.7146 11.6075 43.0058 11.6891 43.2877 11.7969C43.5809 11.9081 43.8504 12.0741 44.0816 12.2859C44.3261 12.5148 44.523 12.7895 44.6613 13.0945C44.8241 13.4699 44.9024 13.8766 44.8907 14.2856C44.9071 14.7285 44.8153 15.1686 44.6233 15.568C44.4606 15.8851 44.2316 16.1635 43.9517 16.3842C43.6846 16.5916 43.3822 16.7491 43.0592 16.8492C42.7553 16.9466 42.4437 17.0182 42.1277 17.0633L45.2718 22.2532H44.1274L41.0897 17.1241H39.2123V22.2532H38.2048V11.4464ZM39.2123 16.2087H41.3488C41.7874 16.2235 42.2249 16.1562 42.6388 16.0103C42.9281 15.9051 43.1912 15.7384 43.4099 15.5218C43.5828 15.346 43.711 15.1314 43.7838 14.8958C43.9156 14.4995 43.9156 14.0712 43.7838 13.6748C43.7107 13.4394 43.5825 13.2248 43.4099 13.0488C43.1905 12.833 42.9277 12.6665 42.6388 12.5603C42.2249 12.4147 41.7874 12.3475 41.3488 12.362H39.2123V16.2087Z" fill="white"/>
<path d="M49.7899 11.4465H48.7824V22.2529H49.7899V11.4465Z" fill="white"/>
<path d="M53.5751 16.8492C53.5666 16.0719 53.7064 15.3001 53.9869 14.5752C54.2464 13.9075 54.6355 13.2979 55.1319 12.7814C55.6322 12.2702 56.2324 11.8675 56.8952 11.5985C58.3527 11.029 59.9712 11.029 61.4287 11.5985C62.0911 11.868 62.691 12.2706 63.1914 12.7814C63.6878 13.2977 64.0768 13.9074 64.3358 14.5752C64.8849 16.0443 64.8849 17.6624 64.3358 19.1315C64.0781 19.8022 63.6891 20.4146 63.1914 20.9328C62.6922 21.4432 62.0918 21.8436 61.4287 22.1082C59.9693 22.6675 58.3546 22.6675 56.8952 22.1082C56.2317 21.844 55.631 21.4436 55.1319 20.9328C54.6342 20.4145 54.245 19.8021 53.9869 19.1315C53.7068 18.4036 53.567 17.6292 53.5751 16.8492V16.8492ZM54.5825 16.8492C54.5771 17.4893 54.6857 18.1252 54.9031 18.7272C55.1043 19.2869 55.4156 19.8005 55.8187 20.2378C56.2238 20.6711 56.7153 21.0145 57.2614 21.2458C58.4812 21.7342 59.8421 21.7342 61.0619 21.2458C61.608 21.0145 62.0995 20.6711 62.5046 20.2378C62.9077 19.8005 63.219 19.2869 63.4202 18.7272C63.8476 17.5121 63.8476 16.1875 63.4202 14.9724C63.219 14.4126 62.9077 13.8987 62.5046 13.4612C62.0995 13.0282 61.608 12.6849 61.0619 12.4538C59.8423 11.9647 58.481 11.9647 57.2614 12.4538C56.7153 12.6849 56.2238 13.0282 55.8187 13.4612C55.4156 13.8987 55.1043 14.4126 54.9031 14.9724C54.6857 15.574 54.5772 16.2096 54.5825 16.8492" fill="white"/>
<path d="M12.0106 11.2744C12.1966 11.5494 12.4271 11.8854 12.7021 12.2824C12.9765 12.6797 13.2756 13.1089 13.5995 13.5701C13.9235 14.0313 14.2571 14.5023 14.6005 14.983C14.9434 15.4639 15.2745 15.9273 15.594 16.3731C15.9122 16.82 16.2042 17.2298 16.4698 17.6022C16.7342 17.9755 16.9499 18.2795 17.1168 18.5143C17.2052 18.3868 17.3645 18.1563 17.5948 17.8228C17.8253 17.4899 18.0952 17.1024 18.4045 16.6603C18.714 16.2192 19.05 15.741 19.4125 15.2258C19.7751 14.7106 20.1308 14.2053 20.4796 13.7099C20.8277 13.2144 21.1563 12.7532 21.4654 12.3263C21.7745 11.8994 22.0271 11.5488 22.2231 11.2744V22.2528H21.1636V14.7619C21.1637 14.6685 21.1686 14.5751 21.1782 14.4822C21.1881 14.3845 21.1928 14.3008 21.1928 14.2324C21.0267 14.4676 20.8281 14.7496 20.5972 15.0784C20.3663 15.4072 20.1236 15.758 19.8689 16.1309C19.6138 16.5035 19.3538 16.8836 19.089 17.2711C18.8242 17.6586 18.5691 18.034 18.3238 18.3973C18.078 18.76 17.8499 19.0984 17.6393 19.4124C17.4281 19.7265 17.2539 19.9865 17.1168 20.1922C16.9793 20.0155 16.7929 19.763 16.5575 19.4346C16.3221 19.1062 16.0647 18.7382 15.7853 18.3306C15.5056 17.9234 15.2137 17.5016 14.9094 17.0652C14.6052 16.6287 14.323 16.2192 14.0629 15.8366C13.8031 15.454 13.5728 15.118 13.372 14.8286C13.1711 14.5392 13.0361 14.3404 12.9671 14.2324C12.9682 14.3161 12.9756 14.3996 12.9893 14.4822C13.0031 14.5748 13.0104 14.6682 13.011 14.7619V22.2528H12.0106V11.2744Z" fill="white"/>
<path d="M11.2816 22.2526V11.269" stroke="white" stroke-width="0.25" stroke-miterlimit="10"/>
<path d="M11.9807 36.2763V25.4267H14.6098C15.0572 25.4255 15.5024 25.4893 15.9315 25.6162C16.3433 25.7358 16.7278 25.9345 17.0635 26.2013C17.3961 26.4689 17.6659 26.8062 17.8539 27.1894C18.0613 27.6309 18.1626 28.1147 18.1499 28.6023C18.1515 29.2039 18.0112 29.7974 17.7404 30.3346C17.4486 30.8985 16.9707 31.3441 16.3878 31.5959C16.4785 31.748 16.6 31.9507 16.7523 32.2038C16.9038 32.4571 17.0711 32.7338 17.2536 33.0316C17.4362 33.3312 17.6257 33.6418 17.8235 33.9665C18.0212 34.2912 18.2108 34.5995 18.3933 34.8938C18.5758 35.1881 18.7426 35.4561 18.8947 35.6988C19.0468 35.9416 19.1685 36.1347 19.2598 36.2763H17.9984C17.9171 36.1546 17.8108 35.9875 17.6796 35.7749C17.5473 35.5619 17.4003 35.3238 17.2384 35.0606C17.0766 34.7973 16.9044 34.5186 16.7218 34.2245C16.5393 33.9308 16.362 33.6422 16.19 33.3587C16.0175 33.0755 15.8527 32.8072 15.6957 32.5537C15.5387 32.3001 15.4045 32.0823 15.2932 31.9002C15.1881 31.9207 15.0813 31.9307 14.9743 31.93H13.0138V36.2763H11.9807ZM13.0138 30.9424H14.6245C15.0432 30.9566 15.4595 30.8735 15.8408 30.6996C16.1376 30.5587 16.3996 30.3537 16.6078 30.0994C16.788 29.8744 16.9222 29.6162 17.0027 29.3394C17.0744 29.1001 17.1127 28.8521 17.1167 28.6023C17.1161 28.326 17.0621 28.0524 16.9576 27.7967C16.8506 27.5332 16.693 27.2933 16.4937 27.0905C16.2733 26.8711 16.0095 26.7003 15.7191 26.5891C15.3748 26.457 15.0084 26.3922 14.6397 26.3984H13.0138V30.9424Z" fill="white"/>
<path d="M11.2816 36.2758V25.4215" stroke="white" stroke-width="0.25" stroke-miterlimit="10"/>
</g>
<defs>
<clipPath id="clip0">
<rect width="209.757" height="48" fill="white"/>
</clipPath>
</defs>
</svg>
